<svg width="24" height="22" viewBox="0 0 24 22" fill="none" xmlns="http://www.w3.org/2000/svg">
<path d="M17.8125 0.875C15.5775 0.875 13.3425 1.79375 12 4.5575C10.6575 1.79375 8.4225 0.875 6.1875 0.875C3.05625 0.875 0.375 2.71625 0.375 6.95C0.373674 7.9377 0.489483 8.92207 0.72 9.8825C2.53875 17.465 10.995 21.125 12 21.125C12.9863 21.125 21.1875 17.585 23.1863 10.25C23.4799 9.17467 23.6275 8.0647 23.625 6.95C23.625 2.71625 20.9438 0.875 17.8125 0.875Z" fill="#E63B47"/>
<path d="M8.62501 9.5H15.375C17.0601 9.49993 18.7048 8.98403 20.0881 8.02164C21.4713 7.05924 22.5269 5.69648 23.1128 4.1165C22.1903 1.88412 20.1259 0.875 17.8125 0.875C15.5775 0.875 13.3425 1.79375 12 4.5575C10.6575 1.79375 8.42251 0.875 6.18751 0.875C3.87413 0.875 1.80976 1.88412 0.887257 4.1165C1.47316 5.69648 2.52867 7.05924 3.91192 8.02164C5.29518 8.98403 6.93989 9.49993 8.62501 9.5V9.5Z" fill="#FF505B"/>
<path d="M15.8651 2.54903C15.6026 2.69415 15.3383 2.91315 15.3776 3.17228C15.4402 3.36282 15.5748 3.52136 15.7526 3.61403C16.0706 3.8319 16.4108 4.02653 16.752 4.21928C17.4049 4.58903 18.0626 4.9539 18.7429 5.28803C19.1697 5.52419 19.6368 5.67871 20.1203 5.74365C20.2314 5.75564 20.3437 5.7516 20.4536 5.73165C20.6586 5.6814 20.842 5.56663 20.9768 5.40428C21.2106 5.13059 21.3489 4.78811 21.3705 4.42877C21.3922 4.06942 21.2961 3.71282 21.0968 3.41303C20.1191 1.83428 17.526 1.62728 15.8651 2.54903V2.54903Z" fill="#FF99A0"/>
<path d="M4.99014 2.54903C4.72764 2.69415 4.46326 2.91315 4.50264 3.17228C4.5652 3.36282 4.69978 3.52136 4.87764 3.61403C5.19564 3.8319 5.53576 4.02653 5.87701 4.21928C6.52989 4.58903 7.18951 4.9539 7.86789 5.28803C8.2947 5.52419 8.76181 5.67871 9.24526 5.74365C9.35639 5.75564 9.46866 5.7516 9.57864 5.73165C9.78427 5.68176 9.96836 5.56697 10.1036 5.40428C10.3375 5.13059 10.4757 4.78811 10.4974 4.42877C10.5191 4.06942 10.4229 3.71282 10.2236 3.41303C9.24414 1.83428 6.65101 1.62728 4.99014 2.54903V2.54903Z" fill="#FF99A0"/>
<path d="M23.2748 9.8799C23.2662 9.8799 23.2587 9.87502 23.25 9.87502H17.8332L16.068 7.05127C16.0324 6.99425 15.9821 6.94785 15.9224 6.91694C15.8627 6.88603 15.7957 6.87174 15.7286 6.87557C15.6615 6.87941 15.5966 6.90122 15.5408 6.93873C15.485 6.97624 15.4403 7.02806 15.4114 7.08877L12.0364 14.1763L8.60028 5.2404C8.57424 5.1724 8.52896 5.11346 8.46997 5.07077C8.41099 5.02807 8.34085 5.00347 8.26812 4.99998C8.19539 4.99648 8.12321 5.01423 8.0604 5.05106C7.99759 5.08789 7.94686 5.14222 7.91441 5.2074L5.76828 9.50002H0.750033C0.713925 9.50192 0.678293 9.50912 0.644283 9.5214C0.669408 9.64177 0.691533 9.76402 0.719283 9.88252C0.749283 10.007 0.785283 10.1278 0.819033 10.25H6.00003C6.06972 10.2501 6.13804 10.2307 6.19732 10.194C6.2566 10.1574 6.30451 10.105 6.33566 10.0426L8.20541 6.30315L11.6498 15.2596C11.6761 15.3281 11.722 15.3873 11.7816 15.43C11.8413 15.4726 11.9121 15.4968 11.9854 15.4996H12C12.0707 15.4994 12.1399 15.4793 12.1996 15.4415C12.2593 15.4036 12.3071 15.3497 12.3375 15.2859L15.7935 8.02852L17.3059 10.4484C17.3397 10.5026 17.3867 10.5472 17.4426 10.5781C17.4984 10.609 17.5612 10.6252 17.625 10.625H23.0727C23.1102 10.5001 23.1518 10.3771 23.1852 10.25C23.2197 10.1289 23.2452 10.0033 23.2748 9.8799V9.8799Z" fill="#FBFBFB"/>
</svg>
